<svg width="113" height="51" viewBox="0 0 113 51" fill="none" xmlns="http://www.w3.org/2000/svg">
<rect x="0.954346" width="111.091" height="50.3281" rx="9.44651" fill="url(#paint0_linear_9_616)" fill-opacity="0.7"/>
<path d="M31.3 33.3083C30.9794 33.3083 30.6988 33.1961 30.4584 32.9717C30.2179 32.7312 30.0977 32.4507 30.0977 32.1301V19.458H26.3225C26.0019 19.458 25.7214 19.3378 25.4809 19.0974C25.2565 18.8569 25.1443 18.5764 25.1443 18.2558C25.1443 17.9191 25.2565 17.6386 25.4809 17.4142C25.7214 17.1897 26.0019 17.0775 26.3225 17.0775H36.2774C36.614 17.0775 36.8946 17.1897 37.119 17.4142C37.3434 17.6386 37.4556 17.9191 37.4556 18.2558C37.4556 18.5924 37.3434 18.8809 37.119 19.1214C36.8946 19.3458 36.614 19.458 36.2774 19.458H32.4782V32.1301C32.4782 32.4507 32.358 32.7312 32.1175 32.9717C31.8931 33.1961 31.6206 33.3083 31.3 33.3083ZM44.5469 33.5488C44.2263 33.5488 43.9618 33.4606 43.7534 33.2843C43.561 33.108 43.4648 32.8755 43.4648 32.587V32.2503C42.8076 32.9557 41.8938 33.3083 40.7236 33.3083C39.842 33.3083 39.0484 33.0919 38.3431 32.6591C37.6378 32.2263 37.0847 31.6171 36.684 30.8316C36.2832 30.0301 36.0828 29.1244 36.0828 28.1145C36.0828 26.9923 36.3233 25.9103 36.8042 24.8683C37.2851 23.8103 37.9584 22.9527 38.824 22.2954C39.7057 21.6382 40.7156 21.3096 41.8538 21.3096C42.5912 21.3096 43.2564 21.4138 43.8496 21.6221C44.4427 21.8145 45.0599 22.055 45.7011 22.3435V32.3465C45.7011 32.6671 45.5889 32.9477 45.3644 33.1881C45.14 33.4286 44.8675 33.5488 44.5469 33.5488ZM40.8919 31.0721C41.3568 31.0721 41.8057 30.9759 42.2385 30.7835C42.6874 30.5912 43.0561 30.3587 43.3446 30.0862L43.4167 23.8103C42.9519 23.6179 42.4469 23.5218 41.9019 23.5218C41.2126 23.5218 40.6034 23.7382 40.0744 24.171C39.5454 24.5878 39.1366 25.1488 38.8481 25.8542C38.5595 26.5435 38.4152 27.2809 38.4152 28.0664C38.4152 29.0442 38.6317 29.7897 39.0645 30.3026C39.4973 30.8156 40.1065 31.0721 40.8919 31.0721ZM52.0103 33.3083C51.0805 33.3083 50.271 33.108 49.5817 32.7072C48.9084 32.2904 48.3874 31.8175 48.0187 31.2885C47.666 30.7435 47.4897 30.3026 47.4897 29.966C47.4897 29.6454 47.6019 29.3809 47.8263 29.1725C48.0508 28.9481 48.3153 28.8358 48.6198 28.8358C48.8924 28.8358 49.1168 28.908 49.2931 29.0523C49.4855 29.1965 49.6217 29.3889 49.7019 29.6294C49.8782 30.1263 50.1668 30.519 50.5675 30.8076C50.9683 31.0961 51.4652 31.2404 52.0584 31.2404C52.6835 31.2404 53.1725 31.0881 53.5251 30.7835C53.8778 30.479 54.0542 30.1343 54.0542 29.7496C54.0542 29.3809 53.9019 29.0923 53.5973 28.8839C53.3087 28.6595 52.7156 28.411 51.8179 28.1385C50.5034 27.7378 49.5576 27.2649 48.9805 26.7198C48.4034 26.1588 48.1149 25.4294 48.1149 24.5317C48.1149 23.5859 48.4916 22.8164 49.245 22.2233C49.9985 21.6141 51.0484 21.3096 52.395 21.3096C53.6454 21.3096 54.6152 21.5821 55.3045 22.1271C56.0099 22.6721 56.3625 23.4015 56.3625 24.3153C56.3625 24.8122 56.2583 25.1969 56.0499 25.4695C55.8415 25.7259 55.545 25.8542 55.1603 25.8542C54.8236 25.8542 54.5511 25.75 54.3427 25.5416C54.1343 25.3332 54.0301 25.1088 54.0301 24.8683C54.0301 24.7882 54.0461 24.692 54.0782 24.5798C54.1263 24.4515 54.1503 24.3553 54.1503 24.2912C54.1503 24.0027 54.0061 23.7702 53.7175 23.5939C53.445 23.4176 53.0202 23.3294 52.4431 23.3294C51.7217 23.3294 51.1847 23.4336 50.832 23.642C50.4954 23.8504 50.3271 24.1309 50.3271 24.4836C50.3271 24.8523 50.5034 25.1569 50.8561 25.3973C51.2087 25.6217 51.8419 25.8782 52.7557 26.1668C54.0862 26.5836 55.008 27.0404 55.5209 27.5374C56.0499 28.0343 56.3144 28.7316 56.3144 29.6294C56.3144 30.2385 56.1301 30.8316 55.7614 31.4087C55.4087 31.9698 54.9038 32.4267 54.2465 32.7793C53.6053 33.132 52.8599 33.3083 52.0103 33.3083ZM60.3391 33.3324C60.0345 33.3324 59.762 33.2202 59.5216 32.9957C59.2971 32.7713 59.1849 32.5068 59.1849 32.2022V23.6179H57.2853C56.9647 23.6179 56.6922 23.5057 56.4678 23.2813C56.2433 23.0408 56.1311 22.7683 56.1311 22.4637C56.1311 22.1111 56.2513 21.8305 56.4918 21.6221C56.7323 21.3977 57.0128 21.2855 57.3334 21.2855H59.1849V18.7126C59.1849 18.408 59.2971 18.1355 59.5216 17.8951C59.746 17.6546 60.0185 17.5344 60.3391 17.5344C60.6757 17.5344 60.9483 17.6546 61.1567 17.8951C61.3811 18.1195 61.4933 18.392 61.4933 18.7126V21.2855H63.5372C63.8578 21.2855 64.1303 21.3977 64.3547 21.6221C64.5792 21.8466 64.6914 22.1271 64.6914 22.4637C64.6914 22.7683 64.5792 23.0408 64.3547 23.2813C64.1303 23.5057 63.8578 23.6179 63.5372 23.6179H61.4933V32.2022C61.4933 32.5068 61.3811 32.7713 61.1567 32.9957C60.9322 33.2202 60.6597 33.3324 60.3391 33.3324ZM66.9203 20.2996C66.6157 20.2996 66.3432 20.1794 66.1028 19.939C65.8783 19.6985 65.7741 19.426 65.7902 19.1214L65.8142 18.2317C65.8302 17.9271 65.9505 17.6626 66.1749 17.4382C66.3993 17.2138 66.6638 17.1016 66.9684 17.1016C67.273 17.1016 67.5375 17.2218 67.7619 17.4623C68.0024 17.7027 68.1146 17.9672 68.0986 18.2558L68.0745 19.1695C68.0585 19.4901 67.9382 19.7626 67.7138 19.987C67.5054 20.1954 67.2409 20.2996 66.9203 20.2996ZM66.8001 33.3083C66.4795 33.3083 66.1989 33.1961 65.9585 32.9717C65.7341 32.7312 65.6219 32.4507 65.6219 32.1301L65.7421 22.5599C65.7421 22.2393 65.8543 21.9668 66.0787 21.7424C66.3192 21.5019 66.5997 21.3817 66.9203 21.3817C67.257 21.3817 67.5375 21.5019 67.7619 21.7424C67.9863 21.9668 68.0986 22.2393 68.0986 22.5599L67.9783 32.1301C67.9783 32.4507 67.8581 32.7312 67.6176 32.9717C67.3932 33.1961 67.1207 33.3083 66.8001 33.3083ZM72.5406 33.3083C72.2361 33.3083 71.9635 33.1961 71.7231 32.9717C71.4987 32.7473 71.3864 32.4908 71.3864 32.2022V23.4977H70.2803C69.9918 23.4977 69.7353 23.3855 69.5109 23.1611C69.2865 22.9366 69.1742 22.6802 69.1742 22.3916C69.1742 22.087 69.2865 21.8225 69.5109 21.5981C69.7353 21.3737 69.9838 21.2615 70.2563 21.2615H71.4105C71.4746 19.7386 71.8834 18.6725 72.6368 18.0634C73.4063 17.4382 74.6326 17.1256 76.3158 17.1256C76.7647 17.1256 77.1093 17.2058 77.3498 17.3661C77.5902 17.5264 77.7105 17.8149 77.7105 18.2317C77.7105 18.5523 77.6063 18.8248 77.3979 19.0493C77.2055 19.2577 76.933 19.3619 76.5803 19.3619C75.8589 19.3619 75.3059 19.41 74.9212 19.5061C74.5525 19.5863 74.2719 19.7626 74.0796 20.0351C73.8872 20.3077 73.767 20.7164 73.7189 21.2615L76.1715 21.2855C76.428 21.2855 76.6685 21.3977 76.8929 21.6221C77.1334 21.8466 77.2536 22.1031 77.2536 22.3916C77.2536 22.6802 77.1414 22.9366 76.9169 23.1611C76.7086 23.3855 76.4601 23.4977 76.1715 23.4977H73.6948V32.2022C73.6948 32.4908 73.5746 32.7473 73.3341 32.9717C73.1097 33.1961 72.8452 33.3083 72.5406 33.3083ZM79.8231 37.6125C79.5346 37.6125 79.2861 37.4923 79.0777 37.2518C78.8693 37.0274 78.7651 36.7549 78.7651 36.4343C78.7651 36.29 78.8052 36.1217 78.8853 35.9293L80.9773 31.4328L76.6731 23.0408C76.577 22.8485 76.5289 22.6561 76.5289 22.4637C76.5289 22.1431 76.6411 21.8706 76.8655 21.6462C77.106 21.4057 77.3945 21.2855 77.7311 21.2855C77.9876 21.2855 78.2121 21.3576 78.4044 21.5019C78.5968 21.6462 78.7411 21.8145 78.8372 22.0069L82.2277 28.7156L85.2574 22.0069C85.3536 21.7985 85.4979 21.6221 85.6903 21.4779C85.8987 21.3336 86.1231 21.2615 86.3635 21.2615C86.6521 21.2615 86.9006 21.3737 87.1089 21.5981C87.3173 21.8225 87.4215 22.1031 87.4215 22.4397C87.4215 22.6321 87.3895 22.7924 87.3254 22.9206L80.9052 36.8671C80.809 37.0915 80.6647 37.2679 80.4723 37.3961C80.28 37.5404 80.0636 37.6125 79.8231 37.6125Z" fill="url(#paint1_linear_9_616)"/>
<defs>
<linearGradient id="paint0_linear_9_616" x1="0.954346" y1="24.8609" x2="112.046" y2="24.8609" gradientUnits="userSpaceOnUse">
<stop stop-color="#E7E8FF"/>
<stop offset="1" stop-color="#E7DCFF"/>
</linearGradient>
<linearGradient id="paint1_linear_9_616" x1="25" y1="24.9954" x2="88" y2="24.9954" gradientUnits="userSpaceOnUse">
<stop stop-color="#777FF6"/>
<stop offset="1" stop-color="#8462D5"/>
</linearGradient>
</defs>
</svg>
